<svg width="33" height="24" viewBox="0 0 33 24" fill="none" xmlns="http://www.w3.org/2000/svg">
<path d="M30.8991 0H2.02054C1.02294 0 0.214233 0.808711 0.214233 1.80631V21.3144C0.214233 22.312 1.02294 23.1207 2.02054 23.1207H30.8991C31.8967 23.1207 32.7054 22.312 32.7054 21.3144V1.80631C32.7054 0.808711 31.8967 0 30.8991 0Z" fill="#016FD0"/>
<path d="M16.4571 8.338C16.4571 7.94329 16.0713 7.90984 15.9085 7.90984H14.9429V8.70818H15.7769C15.9576 8.70818 16.4571 8.73271 16.4571 8.338Z" fill="white"/>
<path d="M23.7762 7.98122L23.261 9.29246H24.3069L23.7762 7.98122Z" fill="white"/>
<path d="M1.97162 9.24338H3.0108L2.50905 7.96782L1.97162 9.24338Z" fill="white"/>
<path d="M31.3735 17.9181H29.4981V17.0261H31.3713C31.5475 17.0261 31.8173 16.9569 31.8173 16.696C31.8173 16.4351 31.572 16.3972 31.4114 16.3972C31.155 16.3972 30.9655 16.3972 30.4704 16.3972C29.9753 16.3972 29.3554 16.1341 29.3554 15.1997C29.3554 14.6377 29.8014 14.0468 30.7737 14.0468H32.7138V13.2774H13.0741L12.5255 14.0044L11.9814 13.2774H6.36179V18.6785H11.9859L12.4988 17.9381L12.9961 18.6785H16.4414V17.4074H16.738C17.101 17.4456 17.4677 17.3911 17.804 17.2491V18.6763H20.1075V17.8021L20.7988 18.6763H31.4694C32.4194 18.6763 32.7249 18.2437 32.7249 18.2437V17.171C32.5421 17.6594 32.0961 17.9181 31.3735 17.9181ZM10.3334 14.921H8.18147V15.552H10.271V16.3415H8.18147V17.0283H10.3334V17.9203H7.19804V14.049H10.3334V14.921ZM14.624 17.9181H13.3908L12.5166 16.6358L11.6001 17.9181H10.4137L11.9502 15.9757L10.4137 14.049H11.6246L12.5166 15.2577L13.451 14.049H14.6418L13.0652 15.9891L14.624 17.9181ZM16.961 16.6202H15.6988V17.9181H14.7265V14.049H16.8071C17.3423 14.049 18.1719 14.3032 18.1719 15.3246C18.1835 15.4906 18.1609 15.6572 18.1052 15.814C18.0496 15.9709 17.9623 16.1146 17.8486 16.2361C17.735 16.3577 17.5976 16.4546 17.4448 16.5206C17.2921 16.5867 17.1274 16.6206 16.961 16.6202ZM21.0798 17.9181L19.9247 16.502H19.5768V17.9158H18.5889V14.049H20.7476C20.9205 14.0401 21.0933 14.0675 21.255 14.1295C21.4166 14.1915 21.5634 14.2868 21.6859 14.4091C21.8085 14.5314 21.904 14.6781 21.9663 14.8396C22.0286 15.0012 22.0563 15.174 22.0477 15.3469C22.0477 15.9869 21.6396 16.2969 21.0731 16.502L22.284 17.9181H21.0798ZM25.5733 17.9181H22.4178V14.049H25.5621V14.941H23.4146V15.5565H25.5064V16.3794H23.399V17.0328H25.5688L25.5733 17.9181ZM27.8591 17.9181H25.9858V17.0261H27.8591C28.0352 17.0261 28.3051 16.9569 28.3051 16.696C28.3051 16.4351 28.0597 16.3972 27.897 16.3972C27.6427 16.3972 27.451 16.3972 26.9559 16.3972C26.4608 16.3972 25.852 16.1341 25.852 15.1997C25.852 14.6377 26.298 14.0468 27.2703 14.0468H29.206L28.8046 14.9388H27.1544C27.0696 14.9388 26.8176 15.0168 26.8176 15.2465C26.8174 15.3244 26.8468 15.3995 26.8997 15.4566C26.9527 15.5137 27.0254 15.5486 27.1031 15.5543L28.2671 15.5677C28.406 15.5691 28.5432 15.5982 28.6706 15.6534C28.7981 15.7087 28.9132 15.7888 29.0092 15.8892C29.1052 15.9895 29.1801 16.1081 29.2296 16.2378C29.2791 16.3676 29.3022 16.5059 29.2974 16.6447C29.2996 17.4765 28.7934 17.9181 27.8591 17.9181Z" fill="white"/>
<path d="M15.4875 11.6741V10.8289L16.1565 11.6741H19.5438V11.2125C19.8516 11.5492 20.3667 11.6741 21.0268 11.6741H23.1252L23.4843 10.878H24.0997L24.4521 11.6741H27.7436V10.7219L28.368 11.6741H30.7073V6.2775H28.3055V7.28769L27.6544 6.2775H25.4444V7.6378L24.849 6.2775H21.281C20.1972 6.2775 19.807 6.612 19.5215 6.80824V6.2775H7.69582L7.27212 7.29215L6.87964 6.2775H4.18802V7.7047L3.58146 6.2775H1.38936L0.207458 8.96019V11.6741H1.7863L2.1431 10.8579L2.82549 10.8958L3.18006 11.712L8.30907 11.6763L15.4875 11.6741ZM27.3823 7.04462L28.9076 9.45526V7.04462H29.9022V10.9137H28.7203L27.1348 8.46067V10.9137H26.1491V7.04462H27.3823ZM24.4097 7.04462L26.0622 10.9137H24.9962L24.6372 10.1064H22.9089L22.5588 10.9137H21.5263L23.1765 7.04462H24.4097ZM21.1695 7.04462H22.2065V7.98122H21.1896C21.0571 7.97201 20.9242 7.99163 20.8001 8.03872C20.6759 8.08581 20.5634 8.15926 20.4704 8.254C20.3773 8.34874 20.3059 8.46253 20.2611 8.58753C20.2162 8.71252 20.199 8.84575 20.2106 8.97803C20.2106 9.90795 20.8662 10.093 21.1026 10.093H21.4929L21.1026 10.9137C20.0478 10.9137 19.2673 10.3116 19.2673 9.00925C19.2673 7.95446 19.8315 7.04462 21.1695 7.04462ZM17.8245 7.04462H18.77V10.9137H17.8245V7.04462ZM15.7484 7.04462C17.3361 7.04462 17.4164 7.88979 17.4164 8.32018C17.4225 8.60933 17.3224 8.89067 17.135 9.11095C16.9476 9.33123 16.6859 9.47515 16.3995 9.51547L17.6729 10.9137H16.4865L15.2912 9.54892H14.95V10.9137H13.9666L13.9554 7.04462H15.7484ZM10.3094 7.04462H13.4024V7.92101H11.2371V8.54764H13.3489V9.34153H11.2371V10.0574H13.4024V10.9137H10.3116L10.3094 7.04462ZM3.70857 10.9137L3.354 10.1153H1.63466L1.27563 10.9137H0.218609L1.86881 7.08699H3.12654L4.79012 10.9137H3.70857ZM6.83058 10.9137L5.85607 8.13732V10.9137H4.85925V7.09814H6.39573L7.28773 9.53554L8.1329 7.0357H9.65154V10.9137H8.7127L8.68148 8.09272L7.67352 10.9137H6.83058Z" fill="white"/>
<path d="M20.6786 14.9076H19.5636V15.7171H20.7009C20.8054 15.7131 20.9043 15.6688 20.977 15.5936C21.0498 15.5184 21.0906 15.4181 21.0911 15.3135C21.0937 15.2589 21.0848 15.2044 21.0649 15.1535C21.045 15.1026 21.0146 15.0565 20.9757 15.0182C20.9367 14.9799 20.8901 14.9502 20.8389 14.9312C20.7877 14.9121 20.7331 14.9041 20.6786 14.9076Z" fill="white"/>
<path d="M16.7603 14.9076H15.6854V15.8331H16.7603C16.8222 15.8359 16.8841 15.8258 16.9419 15.8034C16.9998 15.781 17.0523 15.7468 17.0962 15.7029C17.14 15.6591 17.1743 15.6065 17.1967 15.5487C17.2191 15.4909 17.2292 15.429 17.2263 15.367C17.2282 15.3056 17.2174 15.2444 17.1946 15.1874C17.1718 15.1304 17.1374 15.0787 17.0936 15.0355C17.0499 14.9924 16.9977 14.9588 16.9403 14.9368C16.8829 14.9148 16.8216 14.9048 16.7603 14.9076Z" fill="white"/>
<path d="M30.6695 14.9411C30.587 14.9411 30.3328 15.0191 30.3328 15.2488C30.3326 15.3267 30.3619 15.4018 30.4149 15.4589C30.4679 15.516 30.5405 15.5509 30.6182 15.5565L31.7845 15.5699C31.987 15.5696 32.1848 15.63 32.3526 15.7433C32.5203 15.8566 32.6502 16.0176 32.7256 16.2055V14.1293L32.3197 14.9411H30.6695Z" fill="white"/>
</svg>
