<svg width="34" height="24" viewBox="0 0 34 24" fill="none" xmlns="http://www.w3.org/2000/svg">
<path d="M31.2882 0H2.40958C1.41198 0 0.603271 0.808711 0.603271 1.80631V21.3144C0.603271 22.312 1.41198 23.1207 2.40958 23.1207H31.2882C32.2858 23.1207 33.0945 22.312 33.0945 21.3144V1.80631C33.0945 0.808711 32.2858 0 31.2882 0Z" fill="#CCCCCC"/>
<path d="M18.2608 18.1433C21.8288 18.1589 25.0734 15.2443 25.0734 11.6763C25.0734 7.78941 21.8221 5.10225 18.2608 5.10448H15.1967C11.5908 5.11117 8.63159 7.80502 8.63159 11.6852C8.63159 15.2399 11.5975 18.1522 15.2034 18.1522L18.2608 18.1433Z" fill="#004A98"/>
<path d="M16.5632 15.144V8.08826C17.2772 8.36164 17.8915 8.84523 18.3248 9.47513C18.7581 10.105 18.9901 10.8516 18.9901 11.6161C18.9901 12.3807 18.7581 13.1272 18.3248 13.7571C17.8915 14.387 17.2772 14.8706 16.5632 15.144ZM11.4342 11.6161C11.4357 10.8526 11.6677 10.1073 12.0998 9.47783C12.5319 8.84835 13.144 8.36402 13.856 8.08826V15.144C13.1432 14.8689 12.5301 14.3849 12.0972 13.7554C11.6642 13.1258 11.4316 12.3802 11.4298 11.6161H11.4342ZM15.2208 5.65086C14.0405 5.64865 12.8861 5.99663 11.9036 6.65076C10.9212 7.30489 10.1548 8.23577 9.70164 9.32558C9.24844 10.4154 9.12871 11.6152 9.35762 12.773C9.58653 13.9309 10.1538 14.9949 10.9876 15.8302C11.8214 16.6656 12.8843 17.2349 14.0418 17.4659C15.1992 17.697 16.3992 17.5795 17.4899 17.1284C18.5805 16.6772 19.5128 15.9126 20.1688 14.9314C20.8248 13.9502 21.1749 12.7964 21.1749 11.6161C21.1749 10.034 20.5464 8.51675 19.4277 7.39804C18.309 6.27934 16.7917 5.65086 15.2096 5.65086" fill="white"/>
</svg>
