<svg width="33" height="24" viewBox="0 0 33 24" fill="none" xmlns="http://www.w3.org/2000/svg">
<path d="M31.1942 0H2.3156C1.318 0 0.509293 0.808711 0.509293 1.80631V21.3144C0.509293 22.312 1.318 23.1207 2.3156 23.1207H31.1942C32.1918 23.1207 33.0005 22.312 33.0005 21.3144V1.80631C33.0005 0.808711 32.1918 0 31.1942 0Z" fill="#221F20"/>
<path d="M9.48934 9.01411C9.72308 8.93589 9.97288 8.89386 10.2332 8.89386C11.367 8.89386 12.3137 9.6994 12.5308 10.7705L14.1384 10.4422C13.7696 8.62304 12.1613 7.2532 10.2332 7.2532C9.79078 7.2532 9.36624 7.32511 8.96918 7.45796L9.48934 9.01411Z" fill="#FBC707"/>
<path d="M7.59226 14.2243L8.67973 12.9951C8.19424 12.565 7.88815 11.9377 7.88815 11.2387C7.88815 10.54 8.19394 9.913 8.67883 9.48335L7.59136 8.25402C6.7669 8.98421 6.24704 10.0508 6.24704 11.2387C6.24704 12.4272 6.76751 13.4941 7.59226 14.2243Z" fill="#38A7E4"/>
<path d="M12.5304 11.7094C12.3128 12.7793 11.3669 13.5836 10.2334 13.5836C9.97277 13.5836 9.72237 13.5416 9.48893 13.4629L8.96802 15.0194C9.36523 15.1524 9.79067 15.2238 10.2334 15.2238C12.1597 15.2238 13.7676 13.8569 14.138 12.0386L12.5304 11.7094Z" fill="#EF3120"/>
<path d="M18.7573 12.5619C18.7567 12.5627 18.7564 12.563 18.7561 12.5637L18.7102 12.5325C18.5786 12.7464 18.3735 12.9194 18.1141 13.0315C17.6206 13.2462 17.1635 13.1911 16.8354 12.9032L16.8052 12.9488L16.8046 12.9481L16.2443 13.7856C16.3834 13.882 16.5326 13.9641 16.6894 14.0294C17.3078 14.2861 17.9405 14.2741 18.5638 14.0031C19.0145 13.8081 19.3683 13.51 19.6103 13.1323L18.7573 12.5619ZM17.0095 10.4958C16.4892 10.7197 16.2203 11.2082 16.2757 11.7813L18.482 10.8315C18.103 10.3854 17.6089 10.2378 17.0095 10.4958ZM15.5448 13.047C15.4919 12.9617 15.4203 12.825 15.3773 12.7247C15.1228 12.1337 15.1105 11.5221 15.3255 10.9349C15.5617 10.2908 16.0136 9.79794 16.5967 9.54694C17.3306 9.23109 18.1419 9.29369 18.845 9.71057C19.2913 9.96668 19.6079 10.3622 19.8484 10.9216C19.8792 10.9932 19.9058 11.0701 19.9322 11.1349L15.5448 13.047Z" fill="white"/>
<path d="M21.4659 8.31331V12.9697L22.1898 13.2629L21.7784 14.2225L20.9795 13.8904C20.8 13.8125 20.6781 13.6936 20.5854 13.5594C20.4975 13.4226 20.4311 13.235 20.4311 12.9825V8.31331H21.4659Z" fill="white"/>
<path d="M23.3407 11.7834C23.341 11.387 23.5163 11.0314 23.7931 10.7897L23.0503 9.9618C22.5467 10.4072 22.2298 11.0574 22.2289 11.7823C22.228 12.508 22.5446 13.1589 23.0484 13.6054L23.7898 12.7763C23.5145 12.534 23.3404 12.1789 23.3407 11.7834Z" fill="white"/>
<path d="M24.6608 13.1048C24.5144 13.1045 24.374 13.0802 24.2424 13.0364L23.8876 14.0914C24.1301 14.1728 24.3901 14.2169 24.6599 14.2172C25.8356 14.2183 26.8178 13.3839 27.0454 12.2747L25.9549 12.0523C25.8312 12.6534 25.2985 13.1054 24.6608 13.1048Z" fill="white"/>
<path d="M24.6637 9.35178C24.394 9.35148 24.1349 9.39532 23.8923 9.47593L24.2442 10.5316C24.3758 10.4882 24.5166 10.4639 24.6628 10.4639C25.302 10.4646 25.8348 10.9192 25.9555 11.5221L27.046 11.3006C26.822 10.1901 25.841 9.35253 24.6637 9.35178Z" fill="white"/>
</svg>
