<svg width="33" height="24" viewBox="0 0 33 24" fill="none" xmlns="http://www.w3.org/2000/svg">
<path d="M30.6849 0H1.80631C0.808711 0 0 0.808711 0 1.80631V21.3144C0 22.312 0.808711 23.1207 1.80631 23.1207H30.6849C31.6825 23.1207 32.4912 22.312 32.4912 21.3144V1.80631C32.4912 0.808711 31.6825 0 30.6849 0Z" fill="#0071BC"/>
<path d="M13.7614 11.6272C13.7604 10.6444 13.9825 9.67415 14.4109 8.78958C14.8392 7.90501 15.4628 7.12918 16.2344 6.52051C15.2744 5.76006 14.1195 5.28557 12.9021 5.15145C11.6847 5.01733 10.4542 5.22901 9.35165 5.76222C8.24908 6.29543 7.3191 7.12858 6.66836 8.16612C6.01762 9.20367 5.67245 10.4036 5.67245 11.6283C5.67245 12.8531 6.01762 14.053 6.66836 15.0906C7.3191 16.1281 8.24908 16.9613 9.35165 17.4945C10.4542 18.0277 11.6847 18.2394 12.9021 18.1052C14.1195 17.9711 15.2744 17.4966 16.2344 16.7362C15.4626 16.1272 14.839 15.3509 14.4106 14.466C13.9822 13.581 13.7602 12.6104 13.7614 11.6272Z" fill="#E71B26"/>
<path d="M16.2343 16.7362C17.6002 16.7362 18.7074 14.4489 18.7074 11.6273C18.7074 8.80571 17.6002 6.51836 16.2343 6.51836C14.8685 6.51836 13.7613 8.80571 13.7613 11.6273C13.7613 14.4489 14.8685 16.7362 16.2343 16.7362Z" fill="#F36523"/>
<path d="M20.2751 5.11343C18.8075 5.1104 17.3826 5.60662 16.2343 6.52057C17.0053 7.13014 17.6282 7.90632 18.0565 8.79092C18.4848 9.67551 18.7072 10.6456 18.7072 11.6284C18.7072 12.6112 18.4848 13.5813 18.0565 14.4659C17.6282 15.3505 17.0053 16.1267 16.2343 16.7362C17.0494 17.3809 18.0069 17.8212 19.0269 18.0204C20.0468 18.2196 21.0996 18.1718 22.0973 17.8811C23.0951 17.5904 24.0087 17.0652 24.7621 16.3494C25.5155 15.6336 26.0866 14.7479 26.4279 13.7663C26.7691 12.7847 26.8706 11.7357 26.7238 10.7069C26.5769 9.67816 26.1861 8.69944 25.5839 7.85251C24.9816 7.00558 24.1855 6.31503 23.262 5.83853C22.3385 5.36203 21.3143 5.11341 20.2751 5.11343Z" fill="#FA9F1B"/>
</svg>
