<svg width="34" height="24" viewBox="0 0 34 24" fill="none" xmlns="http://www.w3.org/2000/svg">
<path d="M31.5228 0H2.64423C1.64663 0 0.837921 0.808711 0.837921 1.80631V21.3144C0.837921 22.312 1.64663 23.1207 2.64423 23.1207H31.5228C32.5204 23.1207 33.3291 22.312 33.3291 21.3144V1.80631C33.3291 0.808711 32.5204 0 31.5228 0Z" fill="#F3F3F3"/>
<path fill-rule="evenodd" clip-rule="evenodd" d="M13.6442 14.3843L14.562 8.70576H16.0304L15.1126 14.3843H13.6442Z" fill="#00529B"/>
<path fill-rule="evenodd" clip-rule="evenodd" d="M20.4358 8.84431C20.0158 8.68241 19.5693 8.60036 19.1192 8.60235C17.6674 8.60235 16.6478 9.37662 16.6412 10.4813C16.6295 11.2973 17.3721 11.7512 17.9277 12.0232C18.4834 12.2952 18.6887 12.4821 18.6887 12.729C18.6887 13.1095 18.2298 13.2847 17.8076 13.2847C17.3304 13.2981 16.8571 13.1944 16.4292 12.9827L16.2357 12.8926L16.0304 14.1674C16.5522 14.371 17.1074 14.4751 17.6674 14.4745C19.2093 14.4745 20.2122 13.7136 20.2239 12.5355C20.2239 11.888 19.8367 11.3924 18.9907 10.9886C18.4784 10.7283 18.1563 10.553 18.1563 10.2877C18.1563 10.0224 18.43 9.80214 19.009 9.80214C19.3857 9.79045 19.76 9.86463 20.1037 10.0191L20.2355 10.0791L20.4358 8.85265V8.84431Z" fill="#00529B"/>
<path fill-rule="evenodd" clip-rule="evenodd" d="M22.3859 12.3736C22.5077 12.0398 22.9732 10.7833 22.9732 10.7833C22.9732 10.7833 23.0934 10.4496 23.1668 10.241L23.2686 10.7299C23.2686 10.7299 23.5473 12.0882 23.6023 12.3736H22.3859ZM24.1997 8.70244H23.0634C22.7129 8.70244 22.4476 8.80423 22.2958 9.17301L20.1148 14.3843H21.655L21.9637 13.5333H23.8493C23.891 13.7319 24.0245 14.3843 24.0245 14.3843H25.3845L24.1997 8.71078V8.70244Z" fill="#00529B"/>
<path fill-rule="evenodd" clip-rule="evenodd" d="M12.4177 8.70576L10.9792 12.5788L10.8224 11.7928C10.5554 10.8867 9.72272 9.90222 8.78491 9.41329L10.1032 14.3793H11.6551L13.9629 8.70576H12.4177Z" fill="#00529B"/>
<path fill-rule="evenodd" clip-rule="evenodd" d="M9.64444 8.70576H7.28324L7.25821 8.8209C9.09377 9.29148 10.3219 10.4279 10.8242 11.7928L10.3086 9.18301C10.2235 8.8209 9.96483 8.71745 9.6411 8.70576H9.64444Z" fill="#F5AB00"/>
<path d="M33.3955 17.1711H0.837433V21.4081C0.837433 22.3934 1.63616 23.1921 2.62144 23.1921H31.6115C32.5968 23.1921 33.3955 22.3934 33.3955 21.4081V17.1711Z" fill="#F5AB00"/>
<path d="M31.612 0H2.62193C1.63665 0 0.837921 0.798726 0.837921 1.78401V5.79802H33.396V1.78401C33.396 0.798726 32.5973 0 31.612 0Z" fill="#00529B"/>
</svg>
